<?xml version="1.0" encoding="UTF-8"?>
<svg width="22px" height="22px" viewBox="0 0 22 22" version="1.1" xmlns="http://www.w3.org/2000/svg" xmlns:xlink="http://www.w3.org/1999/xlink" fill="none">
    <title>切片</title>
    <g id="内部员工" stroke="none" stroke-width="1" fill-rule="evenodd">
        <g id="icon" transform="translate(-68.000000, -290.000000)" fill-rule="nonzero">
            <g id="tabbar/icon-工作台-未选中" transform="translate(68.000000, 290.000000)">
                <rect id="矩形" opacity="0" x="0" y="0" width="22" height="22"></rect>
                <path d="M19.5671667,7.942 L16.6503333,10.8588333 C15.9344169,11.5745335 14.7739164,11.5745335 14.058,10.8588333 L11.1411667,7.942 C10.4254665,7.22608361 10.4254665,6.06558307 11.1411667,5.34966667 L14.058,2.43283333 C14.7739164,1.71713311 15.9344169,1.71713311 16.6503333,2.43283333 L19.5671667,5.34966667 C20.2828669,6.06558307 20.2828669,7.22608361 19.5671667,7.942 L19.5671667,7.942 Z M7.79166667,20.1666667 L3.66666667,20.1666667 C3.18043644,20.1666667 2.71412092,19.9735125 2.37030423,19.6296958 C2.02648753,19.2858791 1.83333333,18.8195636 1.83333333,18.3333333 L1.83333333,14.2083333 C1.83333333,13.7221031 2.02648754,13.2557876 2.37030423,12.9119709 C2.71412093,12.5681542 3.18043644,12.375 3.66666667,12.375 L7.79166667,12.375 C8.80418871,12.375 9.625,13.1958113 9.625,14.2083333 L9.625,18.3333333 C9.625,18.8195636 9.4318458,19.2858791 9.08802911,19.6296958 C8.74421242,19.9735125 8.27789691,20.1666667 7.79166667,20.1666667 L7.79166667,20.1666667 Z M7.79166667,10.5416667 L3.66666667,10.5416667 C3.18043644,10.5416667 2.71412092,10.3485125 2.37030423,10.0046958 C2.02648753,9.66087908 1.83333333,9.19456356 1.83333333,8.70833333 L1.83333333,4.58333333 C1.83333333,4.09710309 2.02648754,3.63078758 2.37030423,3.28697089 C2.71412093,2.9431542 3.18043644,2.75 3.66666667,2.75 L7.79166667,2.75 C8.80418871,2.75 9.625,3.57081129 9.625,4.58333333 L9.625,8.70833333 C9.625,9.19456356 9.4318458,9.66087907 9.08802911,10.0046958 C8.74421242,10.3485125 8.27789691,10.5416667 7.79166667,10.5416667 L7.79166667,10.5416667 Z M13.2916667,12.375 L17.4166667,12.375 C18.4291887,12.375 19.25,13.1958113 19.25,14.2083333 L19.25,18.3333333 C19.25,18.8195636 19.0568458,19.2858791 18.7130291,19.6296958 C18.3692124,19.9735125 17.9028969,20.1666667 17.4166667,20.1666667 L13.2916667,20.1666667 C12.8054364,20.1666667 12.3391209,19.9735125 11.9953042,19.6296958 C11.6514875,19.2858791 11.4583333,18.8195636 11.4583333,18.3333333 L11.4583333,14.2083333 C11.4583333,13.7221031 11.6514875,13.2557876 11.9953042,12.9119709 C12.3391209,12.5681542 12.8054364,12.375 13.2916667,12.375 L13.2916667,12.375 Z" id="形状"></path>
            </g>
        </g>
    </g>
</svg>