<?xml version="1.0" standalone="no"?><!DOCTYPE svg PUBLIC "-//W3C//DTD SVG 1.1//EN" "http://www.w3.org/Graphics/SVG/1.1/DTD/svg11.dtd"><svg class="icon" width="200px" height="200.00px" viewBox="0 0 1024 1024" version="1.1" xmlns="http://www.w3.org/2000/svg" fill="none"><path d="M550.4 64c102.4 6.4 198.4 57.6 268.8 128 83.2 89.6 128 198.4 128 326.4 0 102.4-38.4 198.4-102.4 281.6-64 76.8-153.6 134.4-256 153.6-102.4 19.2-204.8 6.4-294.4-44.8-89.6-51.2-160-128-198.4-224C57.6 588.8 51.2 480 83.2 384c32-102.4 89.6-185.6 179.2-243.2C345.6 83.2 448 57.6 550.4 64z m32 825.6c83.2-19.2 160-64 217.6-134.4 51.2-70.4 83.2-153.6 76.8-243.2 0-102.4-38.4-204.8-108.8-275.2-64-64-140.8-102.4-230.4-108.8-83.2-6.4-172.8 12.8-243.2 64-70.4 51.2-121.6 121.6-147.2 211.2-25.6 83.2-25.6 172.8 12.8 256 38.4 83.2 96 147.2 172.8 192 76.8 44.8 166.4 57.6 249.6 38.4zM505.6 480L659.2 320l44.8 44.8-153.6 160 153.6 160-44.8 44.8-153.6-160-153.6 160-44.8-44.8 153.6-160-153.6-160 44.8-44.8 153.6 160z" /></svg>