<?xml version="1.0" encoding="UTF-8"?>
<svg width="22px" height="22px" viewBox="0 0 22 22" version="1.1" xmlns="http://www.w3.org/2000/svg" xmlns:xlink="http://www.w3.org/1999/xlink" fill="none">
    <title>切片</title>
    <g id="内部员工" stroke="none" stroke-width="1" fill-rule="evenodd">
        <g id="icon" transform="translate(-17.000000, -330.000000)" fill-rule="nonzero">
            <g id="tabbar/icon-首页-选中备份" transform="translate(17.000000, 330.000000)">
                <rect id="矩形" opacity="0" x="0" y="0" width="22" height="22"></rect>
                <path d="M12.0742105,1.34563489 L19.7931579,6.88589805 C20.5506413,7.42956853 21,8.30481981 21,9.23721385 L21,18.1714244 C21,19.7701086 19.7039474,21.0661612 18.1052632,21.0661612 L14.1578947,21.0661612 L14.1578947,16.8556349 C14.1578947,15.1116875 12.7439474,13.6977402 11,13.6977402 C9.25605263,13.6977402 7.84210526,15.1116875 7.84210526,16.8556349 L7.84210526,21.0661612 L3.89473684,21.0661612 C2.29605262,21.0661612 1,19.7701086 1,18.1714244 L1,9.23747699 C1,8.30499011 1.44928332,7.42962267 2.2068421,6.88589805 L9.92578948,1.34563489 C10.5677895,0.884788369 11.4322105,0.884788369 12.0742105,1.34563489 Z" id="路径"></path>
            </g>
        </g>
    </g>
</svg>